<svg xmlns="http://www.w3.org/2000/svg" xmlns:xlink="http://www.w3.org/1999/xlink" zoomAndPan="magnify" preserveAspectRatio="xMidYMid meet" version="1.0" viewBox="116.5 111 140.31 141.55"><defs><g></g><clipPath id="82e5bd3972"><path d="M 152.042969 111 L 223 111 L 223 157 L 152.042969 157 Z M 152.042969 111 " clip-rule="nonzero"></path></clipPath></defs><g clip-path="url(#82e5bd3972)"><path fill="#039b52" d="M 152.097656 147.640625 C 152.097656 147.640625 164.257812 125.195312 196.503906 125.359375 C 196.53125 125.359375 196.546875 125.359375 196.546875 125.359375 C 196.53125 125.359375 196.519531 125.359375 196.503906 125.359375 C 195.433594 125.371094 173.996094 125.882812 155.410156 149.910156 C 197.226562 176.53125 222.914062 114.917969 222.914062 114.917969 C 152.09375 99.03125 152.097656 147.640625 152.097656 147.640625 " fill-opacity="1" fill-rule="nonzero"></path></g><g fill="#03af5c" fill-opacity="1"><g transform="translate(114.629183, 206.954972)"><g><path d="M 29.328125 -25.125 C 28.421875 -26.882812 27.15625 -28.210938 25.53125 -29.109375 C 23.90625 -30.003906 22.023438 -30.453125 19.890625 -30.453125 C 17.554688 -30.453125 15.472656 -29.925781 13.640625 -28.875 C 11.816406 -27.820312 10.390625 -26.332031 9.359375 -24.40625 C 8.328125 -22.476562 7.8125 -20.25 7.8125 -17.71875 C 7.8125 -15.175781 8.328125 -12.929688 9.359375 -10.984375 C 10.390625 -9.035156 11.816406 -7.535156 13.640625 -6.484375 C 15.472656 -5.441406 17.554688 -4.921875 19.890625 -4.921875 C 23.035156 -4.921875 25.585938 -5.800781 27.546875 -7.5625 C 29.515625 -9.320312 30.71875 -11.707031 31.15625 -14.71875 L 17.921875 -14.71875 L 17.921875 -19.328125 L 37.359375 -19.328125 L 37.359375 -14.8125 C 36.984375 -12.070312 36.007812 -9.550781 34.4375 -7.25 C 32.863281 -4.957031 30.816406 -3.125 28.296875 -1.75 C 25.773438 -0.382812 22.972656 0.296875 19.890625 0.296875 C 16.578125 0.296875 13.550781 -0.46875 10.8125 -2 C 8.070312 -3.539062 5.894531 -5.679688 4.28125 -8.421875 C 2.675781 -11.160156 1.875 -14.257812 1.875 -17.71875 C 1.875 -21.164062 2.675781 -24.257812 4.28125 -27 C 5.894531 -29.738281 8.078125 -31.878906 10.828125 -33.421875 C 13.585938 -34.960938 16.609375 -35.734375 19.890625 -35.734375 C 23.648438 -35.734375 26.992188 -34.8125 29.921875 -32.96875 C 32.847656 -31.125 34.96875 -28.507812 36.28125 -25.125 Z M 29.328125 -25.125 "></path></g></g></g><g fill="#03af5c" fill-opacity="1"><g transform="translate(151.721004, 206.954972)"><g><path d="M 9.59375 -23.90625 C 10.4375 -25.320312 11.5625 -26.425781 12.96875 -27.21875 C 14.375 -28.019531 16.039062 -28.421875 17.96875 -28.421875 L 17.96875 -22.4375 L 16.5 -22.4375 C 14.226562 -22.4375 12.507812 -21.859375 11.34375 -20.703125 C 10.175781 -19.554688 9.59375 -17.5625 9.59375 -14.71875 L 9.59375 0 L 3.8125 0 L 3.8125 -27.96875 L 9.59375 -27.96875 Z M 9.59375 -23.90625 "></path></g></g></g><g fill="#03af5c" fill-opacity="1"><g transform="translate(169.074103, 206.954972)"><g><path d="M 29.4375 -14.671875 C 29.4375 -13.617188 29.367188 -12.671875 29.234375 -11.828125 L 7.859375 -11.828125 C 8.035156 -9.585938 8.867188 -7.789062 10.359375 -6.4375 C 11.847656 -5.09375 13.671875 -4.421875 15.828125 -4.421875 C 18.941406 -4.421875 21.144531 -5.722656 22.4375 -8.328125 L 28.671875 -8.328125 C 27.828125 -5.753906 26.296875 -3.644531 24.078125 -2 C 21.859375 -0.363281 19.109375 0.453125 15.828125 0.453125 C 13.160156 0.453125 10.769531 -0.144531 8.65625 -1.34375 C 6.539062 -2.539062 4.878906 -4.226562 3.671875 -6.40625 C 2.472656 -8.59375 1.875 -11.125 1.875 -14 C 1.875 -16.882812 2.457031 -19.414062 3.625 -21.59375 C 4.789062 -23.78125 6.429688 -25.460938 8.546875 -26.640625 C 10.660156 -27.828125 13.085938 -28.421875 15.828125 -28.421875 C 18.472656 -28.421875 20.828125 -27.84375 22.890625 -26.6875 C 24.953125 -25.539062 26.554688 -23.925781 27.703125 -21.84375 C 28.859375 -19.769531 29.4375 -17.378906 29.4375 -14.671875 Z M 23.390625 -16.5 C 23.359375 -18.625 22.597656 -20.328125 21.109375 -21.609375 C 19.617188 -22.898438 17.773438 -23.546875 15.578125 -23.546875 C 13.585938 -23.546875 11.878906 -22.910156 10.453125 -21.640625 C 9.035156 -20.367188 8.191406 -18.65625 7.921875 -16.5 Z M 23.390625 -16.5 "></path></g></g></g><g fill="#03af5c" fill-opacity="1"><g transform="translate(198.250137, 206.954972)"><g><path d="M 29.4375 -14.671875 C 29.4375 -13.617188 29.367188 -12.671875 29.234375 -11.828125 L 7.859375 -11.828125 C 8.035156 -9.585938 8.867188 -7.789062 10.359375 -6.4375 C 11.847656 -5.09375 13.671875 -4.421875 15.828125 -4.421875 C 18.941406 -4.421875 21.144531 -5.722656 22.4375 -8.328125 L 28.671875 -8.328125 C 27.828125 -5.753906 26.296875 -3.644531 24.078125 -2 C 21.859375 -0.363281 19.109375 0.453125 15.828125 0.453125 C 13.160156 0.453125 10.769531 -0.144531 8.65625 -1.34375 C 6.539062 -2.539062 4.878906 -4.226562 3.671875 -6.40625 C 2.472656 -8.59375 1.875 -11.125 1.875 -14 C 1.875 -16.882812 2.457031 -19.414062 3.625 -21.59375 C 4.789062 -23.78125 6.429688 -25.460938 8.546875 -26.640625 C 10.660156 -27.828125 13.085938 -28.421875 15.828125 -28.421875 C 18.472656 -28.421875 20.828125 -27.84375 22.890625 -26.6875 C 24.953125 -25.539062 26.554688 -23.925781 27.703125 -21.84375 C 28.859375 -19.769531 29.4375 -17.378906 29.4375 -14.671875 Z M 23.390625 -16.5 C 23.359375 -18.625 22.597656 -20.328125 21.109375 -21.609375 C 19.617188 -22.898438 17.773438 -23.546875 15.578125 -23.546875 C 13.585938 -23.546875 11.878906 -22.910156 10.453125 -21.640625 C 9.035156 -20.367188 8.191406 -18.65625 7.921875 -16.5 Z M 23.390625 -16.5 "></path></g></g></g><g fill="#03af5c" fill-opacity="1"><g transform="translate(227.426172, 206.954972)"><g><path d="M 17.921875 -28.421875 C 20.117188 -28.421875 22.085938 -27.960938 23.828125 -27.046875 C 25.566406 -26.128906 26.925781 -24.773438 27.90625 -22.984375 C 28.894531 -21.191406 29.390625 -19.03125 29.390625 -16.5 L 29.390625 0 L 23.65625 0 L 23.65625 -15.625 C 23.65625 -18.132812 23.023438 -20.054688 21.765625 -21.390625 C 20.515625 -22.722656 18.804688 -23.390625 16.640625 -23.390625 C 14.472656 -23.390625 12.753906 -22.722656 11.484375 -21.390625 C 10.222656 -20.054688 9.59375 -18.132812 9.59375 -15.625 L 9.59375 0 L 3.8125 0 L 3.8125 -27.96875 L 9.59375 -27.96875 L 9.59375 -24.765625 C 10.539062 -25.910156 11.75 -26.804688 13.21875 -27.453125 C 14.6875 -28.097656 16.253906 -28.421875 17.921875 -28.421875 Z M 17.921875 -28.421875 "></path></g></g></g><g fill="#03af5c" fill-opacity="1"><g transform="translate(123.637657, 252.108703)"><g><path d="M 14.515625 0.328125 C 12.285156 0.328125 10.28125 -0.0546875 8.5 -0.828125 C 6.71875 -1.609375 5.316406 -2.710938 4.296875 -4.140625 C 3.273438 -5.578125 2.765625 -7.253906 2.765625 -9.171875 L 8.59375 -9.171875 C 8.71875 -7.734375 9.28125 -6.550781 10.28125 -5.625 C 11.289062 -4.707031 12.703125 -4.25 14.515625 -4.25 C 16.390625 -4.25 17.851562 -4.703125 18.90625 -5.609375 C 19.957031 -6.515625 20.484375 -7.6875 20.484375 -9.125 C 20.484375 -10.238281 20.15625 -11.144531 19.5 -11.84375 C 18.851562 -12.539062 18.039062 -13.078125 17.0625 -13.453125 C 16.09375 -13.835938 14.75 -14.253906 13.03125 -14.703125 C 10.863281 -15.273438 9.101562 -15.851562 7.75 -16.4375 C 6.40625 -17.03125 5.253906 -17.945312 4.296875 -19.1875 C 3.335938 -20.4375 2.859375 -22.09375 2.859375 -24.15625 C 2.859375 -26.070312 3.335938 -27.742188 4.296875 -29.171875 C 5.253906 -30.609375 6.59375 -31.707031 8.3125 -32.46875 C 10.03125 -33.226562 12.019531 -33.609375 14.28125 -33.609375 C 17.488281 -33.609375 20.117188 -32.804688 22.171875 -31.203125 C 24.234375 -29.597656 25.375 -27.394531 25.59375 -24.59375 L 19.578125 -24.59375 C 19.484375 -25.800781 18.910156 -26.832031 17.859375 -27.6875 C 16.804688 -28.550781 15.421875 -28.984375 13.703125 -28.984375 C 12.140625 -28.984375 10.863281 -28.582031 9.875 -27.78125 C 8.894531 -26.988281 8.40625 -25.847656 8.40625 -24.359375 C 8.40625 -23.335938 8.710938 -22.5 9.328125 -21.84375 C 9.953125 -21.1875 10.738281 -20.664062 11.6875 -20.28125 C 12.644531 -19.90625 13.953125 -19.492188 15.609375 -19.046875 C 17.804688 -18.441406 19.597656 -17.835938 20.984375 -17.234375 C 22.367188 -16.628906 23.546875 -15.695312 24.515625 -14.4375 C 25.484375 -13.1875 25.96875 -11.507812 25.96875 -9.40625 C 25.96875 -7.71875 25.515625 -6.125 24.609375 -4.625 C 23.703125 -3.132812 22.378906 -1.9375 20.640625 -1.03125 C 18.910156 -0.125 16.867188 0.328125 14.515625 0.328125 Z M 14.515625 0.328125 "></path></g></g></g><g fill="#03af5c" fill-opacity="1"><g transform="translate(150.468062, 252.108703)"><g><path d="M 1.765625 -13.171875 C 1.765625 -15.878906 2.3125 -18.257812 3.40625 -20.3125 C 4.507812 -22.363281 6.03125 -23.945312 7.96875 -25.0625 C 9.914062 -26.175781 12.144531 -26.734375 14.65625 -26.734375 C 17.84375 -26.734375 20.476562 -25.976562 22.5625 -24.46875 C 24.644531 -22.957031 26.050781 -20.800781 26.78125 -18 L 20.921875 -18 C 20.441406 -19.300781 19.675781 -20.316406 18.625 -21.046875 C 17.570312 -21.785156 16.25 -22.15625 14.65625 -22.15625 C 12.425781 -22.15625 10.648438 -21.363281 9.328125 -19.78125 C 8.015625 -18.207031 7.359375 -16.003906 7.359375 -13.171875 C 7.359375 -10.335938 8.015625 -8.125 9.328125 -6.53125 C 10.648438 -4.945312 12.425781 -4.15625 14.65625 -4.15625 C 17.8125 -4.15625 19.898438 -5.539062 20.921875 -8.3125 L 26.78125 -8.3125 C 26.019531 -5.632812 24.585938 -3.503906 22.484375 -1.921875 C 20.390625 -0.347656 17.78125 0.4375 14.65625 0.4375 C 12.144531 0.4375 9.914062 -0.125 7.96875 -1.25 C 6.03125 -2.382812 4.507812 -3.976562 3.40625 -6.03125 C 2.3125 -8.09375 1.765625 -10.472656 1.765625 -13.171875 Z M 1.765625 -13.171875 "></path></g></g></g><g fill="#03af5c" fill-opacity="1"><g transform="translate(177.1075, 252.108703)"><g><path d="M 15 0.4375 C 12.507812 0.4375 10.257812 -0.125 8.25 -1.25 C 6.25 -2.382812 4.675781 -3.976562 3.53125 -6.03125 C 2.382812 -8.09375 1.8125 -10.472656 1.8125 -13.171875 C 1.8125 -15.847656 2.398438 -18.21875 3.578125 -20.28125 C 4.753906 -22.351562 6.359375 -23.945312 8.390625 -25.0625 C 10.429688 -26.175781 12.710938 -26.734375 15.234375 -26.734375 C 17.742188 -26.734375 20.015625 -26.175781 22.046875 -25.0625 C 24.085938 -23.945312 25.695312 -22.351562 26.875 -20.28125 C 28.0625 -18.21875 28.65625 -15.847656 28.65625 -13.171875 C 28.65625 -10.503906 28.046875 -8.132812 26.828125 -6.0625 C 25.617188 -3.988281 23.972656 -2.382812 21.890625 -1.25 C 19.804688 -0.125 17.507812 0.4375 15 0.4375 Z M 15 -4.296875 C 16.394531 -4.296875 17.703125 -4.628906 18.921875 -5.296875 C 20.148438 -5.960938 21.144531 -6.960938 21.90625 -8.296875 C 22.675781 -9.640625 23.0625 -11.265625 23.0625 -13.171875 C 23.0625 -15.085938 22.691406 -16.703125 21.953125 -18.015625 C 21.222656 -19.335938 20.253906 -20.332031 19.046875 -21 C 17.835938 -21.675781 16.535156 -22.015625 15.140625 -22.015625 C 13.734375 -22.015625 12.429688 -21.675781 11.234375 -21 C 10.046875 -20.332031 9.101562 -19.335938 8.40625 -18.015625 C 7.707031 -16.703125 7.359375 -15.085938 7.359375 -13.171875 C 7.359375 -10.335938 8.082031 -8.148438 9.53125 -6.609375 C 10.976562 -5.066406 12.800781 -4.296875 15 -4.296875 Z M 15 -4.296875 "></path></g></g></g><g fill="#03af5c" fill-opacity="1"><g transform="translate(205.561132, 252.108703)"><g><path d="M 9.03125 -22.484375 C 9.820312 -23.828125 10.878906 -24.867188 12.203125 -25.609375 C 13.523438 -26.359375 15.09375 -26.734375 16.90625 -26.734375 L 16.90625 -21.109375 L 15.515625 -21.109375 C 13.378906 -21.109375 11.765625 -20.566406 10.671875 -19.484375 C 9.578125 -18.398438 9.03125 -16.519531 9.03125 -13.84375 L 9.03125 0 L 3.578125 0 L 3.578125 -26.3125 L 9.03125 -26.3125 Z M 9.03125 -22.484375 "></path></g></g></g><g fill="#03af5c" fill-opacity="1"><g transform="translate(221.888245, 252.108703)"><g><path d="M 27.6875 -13.796875 C 27.6875 -12.804688 27.625 -11.914062 27.5 -11.125 L 7.40625 -11.125 C 7.5625 -9.019531 8.335938 -7.332031 9.734375 -6.0625 C 11.140625 -4.789062 12.859375 -4.15625 14.890625 -4.15625 C 17.828125 -4.15625 19.898438 -5.378906 21.109375 -7.828125 L 26.984375 -7.828125 C 26.179688 -5.410156 24.738281 -3.425781 22.65625 -1.875 C 20.570312 -0.332031 17.984375 0.4375 14.890625 0.4375 C 12.378906 0.4375 10.128906 -0.125 8.140625 -1.25 C 6.148438 -2.382812 4.585938 -3.976562 3.453125 -6.03125 C 2.328125 -8.09375 1.765625 -10.472656 1.765625 -13.171875 C 1.765625 -15.878906 2.3125 -18.257812 3.40625 -20.3125 C 4.507812 -22.363281 6.054688 -23.945312 8.046875 -25.0625 C 10.035156 -26.175781 12.316406 -26.734375 14.890625 -26.734375 C 17.378906 -26.734375 19.59375 -26.191406 21.53125 -25.109375 C 23.476562 -24.035156 24.988281 -22.519531 26.0625 -20.5625 C 27.144531 -18.601562 27.6875 -16.347656 27.6875 -13.796875 Z M 22.015625 -15.515625 C 21.984375 -17.523438 21.265625 -19.132812 19.859375 -20.34375 C 18.460938 -21.550781 16.726562 -22.15625 14.65625 -22.15625 C 12.78125 -22.15625 11.171875 -21.554688 9.828125 -20.359375 C 8.492188 -19.171875 7.703125 -17.554688 7.453125 -15.515625 Z M 22.015625 -15.515625 "></path></g></g></g></svg>