<svg xmlns="http://www.w3.org/2000/svg" xmlns:xlink="http://www.w3.org/1999/xlink" zoomAndPan="magnify" preserveAspectRatio="xMidYMid meet" version="1.0" viewBox="20.05 163 323.57 42"><defs><g/><clipPath id="07cdf6b4c6"><path d="M 20.050781 163 L 86 163 L 86 205 L 20.050781 205 Z M 20.050781 163 " clip-rule="nonzero"/></clipPath></defs><g clip-path="url(#07cdf6b4c6)"><path fill="#039b52" d="M 20.097656 196.640625 C 20.097656 196.640625 31.382812 175.816406 61.296875 175.96875 C 61.324219 175.96875 61.335938 175.96875 61.335938 175.96875 C 61.324219 175.96875 61.308594 175.96875 61.296875 175.96875 C 60.304688 175.980469 40.414062 176.457031 23.171875 198.746094 C 61.96875 223.445312 85.800781 166.28125 85.800781 166.28125 C 20.09375 151.542969 20.097656 196.640625 20.097656 196.640625 " fill-opacity="1" fill-rule="nonzero"/></g><g fill="#03af5c" fill-opacity="1"><g transform="translate(85.669624, 203.536585)"><g><path d="M 27.28125 -23.359375 C 26.425781 -24.992188 25.242188 -26.226562 23.734375 -27.0625 C 22.222656 -27.894531 20.476562 -28.3125 18.5 -28.3125 C 16.320312 -28.3125 14.382812 -27.820312 12.6875 -26.84375 C 10.988281 -25.875 9.660156 -24.488281 8.703125 -22.6875 C 7.742188 -20.894531 7.265625 -18.820312 7.265625 -16.46875 C 7.265625 -14.101562 7.742188 -12.015625 8.703125 -10.203125 C 9.660156 -8.398438 10.988281 -7.007812 12.6875 -6.03125 C 14.382812 -5.0625 16.320312 -4.578125 18.5 -4.578125 C 21.425781 -4.578125 23.800781 -5.394531 25.625 -7.03125 C 27.445312 -8.664062 28.5625 -10.882812 28.96875 -13.6875 L 16.65625 -13.6875 L 16.65625 -17.984375 L 34.734375 -17.984375 L 34.734375 -13.78125 C 34.390625 -11.226562 33.484375 -8.882812 32.015625 -6.75 C 30.554688 -4.613281 28.65625 -2.90625 26.3125 -1.625 C 23.96875 -0.351562 21.363281 0.28125 18.5 0.28125 C 15.414062 0.28125 12.597656 -0.429688 10.046875 -1.859375 C 7.503906 -3.296875 5.484375 -5.285156 3.984375 -7.828125 C 2.492188 -10.378906 1.75 -13.257812 1.75 -16.46875 C 1.75 -19.675781 2.492188 -22.550781 3.984375 -25.09375 C 5.484375 -27.644531 7.515625 -29.632812 10.078125 -31.0625 C 12.640625 -32.5 15.445312 -33.21875 18.5 -33.21875 C 21.988281 -33.21875 25.09375 -32.359375 27.8125 -30.640625 C 30.539062 -28.929688 32.515625 -26.503906 33.734375 -23.359375 Z M 27.28125 -23.359375 "/></g></g></g><g fill="#03af5c" fill-opacity="1"><g transform="translate(120.152317, 203.536585)"><g><path d="M 8.921875 -22.21875 C 9.703125 -23.539062 10.742188 -24.570312 12.046875 -25.3125 C 13.359375 -26.050781 14.910156 -26.421875 16.703125 -26.421875 L 16.703125 -20.859375 L 15.34375 -20.859375 C 13.226562 -20.859375 11.628906 -20.320312 10.546875 -19.25 C 9.460938 -18.175781 8.921875 -16.320312 8.921875 -13.6875 L 8.921875 0 L 3.546875 0 L 3.546875 -26 L 8.921875 -26 Z M 8.921875 -22.21875 "/></g></g></g><g fill="#03af5c" fill-opacity="1"><g transform="translate(136.284757, 203.536585)"><g><path d="M 27.375 -13.640625 C 27.375 -12.660156 27.3125 -11.78125 27.1875 -11 L 7.3125 -11 C 7.46875 -8.914062 8.238281 -7.242188 9.625 -5.984375 C 11.007812 -4.734375 12.707031 -4.109375 14.71875 -4.109375 C 17.613281 -4.109375 19.660156 -5.316406 20.859375 -7.734375 L 26.65625 -7.734375 C 25.875 -5.347656 24.453125 -3.390625 22.390625 -1.859375 C 20.328125 -0.335938 17.769531 0.421875 14.71875 0.421875 C 12.238281 0.421875 10.015625 -0.132812 8.046875 -1.25 C 6.078125 -2.363281 4.535156 -3.9375 3.421875 -5.96875 C 2.304688 -8 1.75 -10.351562 1.75 -13.03125 C 1.75 -15.695312 2.289062 -18.046875 3.375 -20.078125 C 4.457031 -22.109375 5.984375 -23.671875 7.953125 -24.765625 C 9.921875 -25.867188 12.175781 -26.421875 14.71875 -26.421875 C 17.175781 -26.421875 19.363281 -25.882812 21.28125 -24.8125 C 23.195312 -23.75 24.691406 -22.25 25.765625 -20.3125 C 26.835938 -18.375 27.375 -16.148438 27.375 -13.640625 Z M 21.75 -15.34375 C 21.71875 -17.320312 21.007812 -18.90625 19.625 -20.09375 C 18.238281 -21.289062 16.523438 -21.890625 14.484375 -21.890625 C 12.628906 -21.890625 11.039062 -21.300781 9.71875 -20.125 C 8.394531 -18.945312 7.609375 -17.351562 7.359375 -15.34375 Z M 21.75 -15.34375 "/></g></g></g><g fill="#03af5c" fill-opacity="1"><g transform="translate(163.408479, 203.536585)"><g><path d="M 27.375 -13.640625 C 27.375 -12.660156 27.3125 -11.78125 27.1875 -11 L 7.3125 -11 C 7.46875 -8.914062 8.238281 -7.242188 9.625 -5.984375 C 11.007812 -4.734375 12.707031 -4.109375 14.71875 -4.109375 C 17.613281 -4.109375 19.660156 -5.316406 20.859375 -7.734375 L 26.65625 -7.734375 C 25.875 -5.347656 24.453125 -3.390625 22.390625 -1.859375 C 20.328125 -0.335938 17.769531 0.421875 14.71875 0.421875 C 12.238281 0.421875 10.015625 -0.132812 8.046875 -1.25 C 6.078125 -2.363281 4.535156 -3.9375 3.421875 -5.96875 C 2.304688 -8 1.75 -10.351562 1.75 -13.03125 C 1.75 -15.695312 2.289062 -18.046875 3.375 -20.078125 C 4.457031 -22.109375 5.984375 -23.671875 7.953125 -24.765625 C 9.921875 -25.867188 12.175781 -26.421875 14.71875 -26.421875 C 17.175781 -26.421875 19.363281 -25.882812 21.28125 -24.8125 C 23.195312 -23.75 24.691406 -22.25 25.765625 -20.3125 C 26.835938 -18.375 27.375 -16.148438 27.375 -13.640625 Z M 21.75 -15.34375 C 21.71875 -17.320312 21.007812 -18.90625 19.625 -20.09375 C 18.238281 -21.289062 16.523438 -21.890625 14.484375 -21.890625 C 12.628906 -21.890625 11.039062 -21.300781 9.71875 -20.125 C 8.394531 -18.945312 7.609375 -17.351562 7.359375 -15.34375 Z M 21.75 -15.34375 "/></g></g></g><g fill="#03af5c" fill-opacity="1"><g transform="translate(190.532201, 203.536585)"><g><path d="M 16.65625 -26.421875 C 18.695312 -26.421875 20.523438 -25.992188 22.140625 -25.140625 C 23.765625 -24.296875 25.035156 -23.039062 25.953125 -21.375 C 26.867188 -19.707031 27.328125 -17.695312 27.328125 -15.34375 L 27.328125 0 L 21.984375 0 L 21.984375 -14.53125 C 21.984375 -16.863281 21.398438 -18.648438 20.234375 -19.890625 C 19.078125 -21.128906 17.492188 -21.75 15.484375 -21.75 C 13.460938 -21.75 11.863281 -21.128906 10.6875 -19.890625 C 9.507812 -18.648438 8.921875 -16.863281 8.921875 -14.53125 L 8.921875 0 L 3.546875 0 L 3.546875 -26 L 8.921875 -26 L 8.921875 -23.03125 C 9.796875 -24.09375 10.914062 -24.921875 12.28125 -25.515625 C 13.65625 -26.117188 15.113281 -26.421875 16.65625 -26.421875 Z M 16.65625 -26.421875 "/></g></g></g><g fill="#03af5c" fill-opacity="1"><g transform="translate(219.165451, 203.536585)"><g><path d="M 14.34375 0.328125 C 12.144531 0.328125 10.160156 -0.0546875 8.390625 -0.828125 C 6.628906 -1.597656 5.242188 -2.691406 4.234375 -4.109375 C 3.234375 -5.523438 2.734375 -7.175781 2.734375 -9.0625 L 8.5 -9.0625 C 8.625 -7.644531 9.179688 -6.476562 10.171875 -5.5625 C 11.160156 -4.65625 12.550781 -4.203125 14.34375 -4.203125 C 16.195312 -4.203125 17.644531 -4.648438 18.6875 -5.546875 C 19.726562 -6.441406 20.25 -7.597656 20.25 -9.015625 C 20.25 -10.117188 19.925781 -11.015625 19.28125 -11.703125 C 18.632812 -12.390625 17.832031 -12.921875 16.875 -13.296875 C 15.914062 -13.679688 14.582031 -14.09375 12.875 -14.53125 C 10.738281 -15.101562 9 -15.675781 7.65625 -16.25 C 6.320312 -16.832031 5.179688 -17.738281 4.234375 -18.96875 C 3.296875 -20.195312 2.828125 -21.832031 2.828125 -23.875 C 2.828125 -25.757812 3.296875 -27.410156 4.234375 -28.828125 C 5.179688 -30.242188 6.503906 -31.328125 8.203125 -32.078125 C 9.910156 -32.835938 11.878906 -33.21875 14.109375 -33.21875 C 17.285156 -33.21875 19.890625 -32.421875 21.921875 -30.828125 C 23.953125 -29.242188 25.078125 -27.066406 25.296875 -24.296875 L 19.34375 -24.296875 C 19.25 -25.492188 18.679688 -26.515625 17.640625 -27.359375 C 16.609375 -28.210938 15.242188 -28.640625 13.546875 -28.640625 C 12.003906 -28.640625 10.742188 -28.242188 9.765625 -27.453125 C 8.796875 -26.671875 8.3125 -25.539062 8.3125 -24.0625 C 8.3125 -23.0625 8.613281 -22.238281 9.21875 -21.59375 C 9.832031 -20.945312 10.613281 -20.429688 11.5625 -20.046875 C 12.507812 -19.671875 13.800781 -19.265625 15.4375 -18.828125 C 17.601562 -18.234375 19.367188 -17.632812 20.734375 -17.03125 C 22.109375 -16.4375 23.273438 -15.515625 24.234375 -14.265625 C 25.191406 -13.023438 25.671875 -11.367188 25.671875 -9.296875 C 25.671875 -7.628906 25.222656 -6.054688 24.328125 -4.578125 C 23.429688 -3.097656 22.125 -1.910156 20.40625 -1.015625 C 18.695312 -0.117188 16.675781 0.328125 14.34375 0.328125 Z M 14.34375 0.328125 "/></g></g></g><g fill="#03af5c" fill-opacity="1"><g transform="translate(245.675926, 203.536585)"><g><path d="M 1.75 -13.03125 C 1.75 -15.695312 2.289062 -18.046875 3.375 -20.078125 C 4.457031 -22.109375 5.957031 -23.671875 7.875 -24.765625 C 9.800781 -25.867188 12.003906 -26.421875 14.484375 -26.421875 C 17.628906 -26.421875 20.234375 -25.671875 22.296875 -24.171875 C 24.359375 -22.679688 25.75 -20.554688 26.46875 -17.796875 L 20.671875 -17.796875 C 20.191406 -19.078125 19.429688 -20.078125 18.390625 -20.796875 C 17.359375 -21.523438 16.054688 -21.890625 14.484375 -21.890625 C 12.285156 -21.890625 10.53125 -21.109375 9.21875 -19.546875 C 7.914062 -17.992188 7.265625 -15.820312 7.265625 -13.03125 C 7.265625 -10.226562 7.914062 -8.039062 9.21875 -6.46875 C 10.53125 -4.894531 12.285156 -4.109375 14.484375 -4.109375 C 17.597656 -4.109375 19.660156 -5.472656 20.671875 -8.203125 L 26.46875 -8.203125 C 25.71875 -5.566406 24.300781 -3.46875 22.21875 -1.90625 C 20.144531 -0.351562 17.566406 0.421875 14.484375 0.421875 C 12.003906 0.421875 9.800781 -0.132812 7.875 -1.25 C 5.957031 -2.363281 4.457031 -3.9375 3.375 -5.96875 C 2.289062 -8 1.75 -10.351562 1.75 -13.03125 Z M 1.75 -13.03125 "/></g></g></g><g fill="#03af5c" fill-opacity="1"><g transform="translate(271.997707, 203.536585)"><g><path d="M 14.8125 0.421875 C 12.363281 0.421875 10.144531 -0.132812 8.15625 -1.25 C 6.175781 -2.363281 4.617188 -3.9375 3.484375 -5.96875 C 2.359375 -8 1.796875 -10.351562 1.796875 -13.03125 C 1.796875 -15.664062 2.375 -18.003906 3.53125 -20.046875 C 4.695312 -22.097656 6.285156 -23.671875 8.296875 -24.765625 C 10.316406 -25.867188 12.566406 -26.421875 15.046875 -26.421875 C 17.535156 -26.421875 19.785156 -25.867188 21.796875 -24.765625 C 23.816406 -23.671875 25.40625 -22.097656 26.5625 -20.046875 C 27.726562 -18.003906 28.3125 -15.664062 28.3125 -13.03125 C 28.3125 -10.382812 27.710938 -8.035156 26.515625 -5.984375 C 25.316406 -3.941406 23.6875 -2.363281 21.625 -1.25 C 19.570312 -0.132812 17.300781 0.421875 14.8125 0.421875 Z M 14.8125 -4.25 C 16.195312 -4.25 17.492188 -4.578125 18.703125 -5.234375 C 19.921875 -5.898438 20.90625 -6.890625 21.65625 -8.203125 C 22.414062 -9.523438 22.796875 -11.132812 22.796875 -13.03125 C 22.796875 -14.914062 22.429688 -16.507812 21.703125 -17.8125 C 20.984375 -19.113281 20.023438 -20.09375 18.828125 -20.75 C 17.628906 -21.414062 16.335938 -21.75 14.953125 -21.75 C 13.566406 -21.75 12.285156 -21.414062 11.109375 -20.75 C 9.929688 -20.09375 8.992188 -19.113281 8.296875 -17.8125 C 7.609375 -16.507812 7.265625 -14.914062 7.265625 -13.03125 C 7.265625 -10.226562 7.976562 -8.0625 9.40625 -6.53125 C 10.84375 -5.007812 12.644531 -4.25 14.8125 -4.25 Z M 14.8125 -4.25 "/></g></g></g><g fill="#03af5c" fill-opacity="1"><g transform="translate(300.112067, 203.536585)"><g><path d="M 8.921875 -22.21875 C 9.703125 -23.539062 10.742188 -24.570312 12.046875 -25.3125 C 13.359375 -26.050781 14.910156 -26.421875 16.703125 -26.421875 L 16.703125 -20.859375 L 15.34375 -20.859375 C 13.226562 -20.859375 11.628906 -20.320312 10.546875 -19.25 C 9.460938 -18.175781 8.921875 -16.320312 8.921875 -13.6875 L 8.921875 0 L 3.546875 0 L 3.546875 -26 L 8.921875 -26 Z M 8.921875 -22.21875 "/></g></g></g><g fill="#03af5c" fill-opacity="1"><g transform="translate(316.244517, 203.536585)"><g><path d="M 27.375 -13.640625 C 27.375 -12.660156 27.3125 -11.78125 27.1875 -11 L 7.3125 -11 C 7.46875 -8.914062 8.238281 -7.242188 9.625 -5.984375 C 11.007812 -4.734375 12.707031 -4.109375 14.71875 -4.109375 C 17.613281 -4.109375 19.660156 -5.316406 20.859375 -7.734375 L 26.65625 -7.734375 C 25.875 -5.347656 24.453125 -3.390625 22.390625 -1.859375 C 20.328125 -0.335938 17.769531 0.421875 14.71875 0.421875 C 12.238281 0.421875 10.015625 -0.132812 8.046875 -1.25 C 6.078125 -2.363281 4.535156 -3.9375 3.421875 -5.96875 C 2.304688 -8 1.75 -10.351562 1.75 -13.03125 C 1.75 -15.695312 2.289062 -18.046875 3.375 -20.078125 C 4.457031 -22.109375 5.984375 -23.671875 7.953125 -24.765625 C 9.921875 -25.867188 12.175781 -26.421875 14.71875 -26.421875 C 17.175781 -26.421875 19.363281 -25.882812 21.28125 -24.8125 C 23.195312 -23.75 24.691406 -22.25 25.765625 -20.3125 C 26.835938 -18.375 27.375 -16.148438 27.375 -13.640625 Z M 21.75 -15.34375 C 21.71875 -17.320312 21.007812 -18.90625 19.625 -20.09375 C 18.238281 -21.289062 16.523438 -21.890625 14.484375 -21.890625 C 12.628906 -21.890625 11.039062 -21.300781 9.71875 -20.125 C 8.394531 -18.945312 7.609375 -17.351562 7.359375 -15.34375 Z M 21.75 -15.34375 "/></g></g></g></svg>