<svg viewBox="226.96153846153845 105.60560000000002 400.0368364030336 194.0274" version="1.0" preserveAspectRatio="xMidYMid meet" zoomAndPan="magnify" xmlns:xlink="http://www.w3.org/1999/xlink" xmlns="http://www.w3.org/2000/svg" style="max-height: 500px" width="400.0368364030336" height="194.0274"><defs><filter id="e89fe953b3" height="100%" width="100%" y="0%" x="0%"><feColorMatrix color-interpolation-filters="sRGB" values="0 0 0 0 1 0 0 0 0 1 0 0 0 0 1 0 0 0 1 0"/></filter><g/><clipPath id="f5f601039b"><path clip-rule="nonzero" d="M 228.015625 106.46875 L 625.882812 106.46875 L 625.882812 298.648438 L 228.015625 298.648438 Z M 228.015625 106.46875"/></clipPath><clipPath id="a777d628f2"><path clip-rule="nonzero" d="M 249.753906 106.46875 L 603.808594 106.46875 C 615.8125 106.46875 625.546875 116.203125 625.546875 128.207031 L 625.546875 276.910156 C 625.546875 288.914062 615.8125 298.648438 603.808594 298.648438 L 249.753906 298.648438 C 237.746094 298.648438 228.015625 288.914062 228.015625 276.910156 L 228.015625 128.207031 C 228.015625 116.203125 237.746094 106.46875 249.753906 106.46875 Z M 249.753906 106.46875"/></clipPath><clipPath id="01d013c08b"><path clip-rule="nonzero" d="M 228.015625 106.46875 L 625.296875 106.46875 L 625.296875 298.363281 L 228.015625 298.363281 Z M 228.015625 106.46875"/></clipPath><clipPath id="291252637a"><path clip-rule="nonzero" d="M 249.753906 106.46875 L 603.804688 106.46875 C 615.8125 106.46875 625.542969 116.203125 625.542969 128.207031 L 625.542969 276.90625 C 625.542969 288.914062 615.8125 298.644531 603.804688 298.644531 L 249.753906 298.644531 C 237.746094 298.644531 228.015625 288.914062 228.015625 276.90625 L 228.015625 128.207031 C 228.015625 116.203125 237.746094 106.46875 249.753906 106.46875 Z M 249.753906 106.46875"/></clipPath><clipPath id="25279de70e"><path clip-rule="nonzero" d="M 489.097656 171.269531 L 585.050781 171.269531 L 585.050781 268.722656 L 489.097656 268.722656 Z M 489.097656 171.269531"/></clipPath><clipPath id="d6881a4be6"><path clip-rule="nonzero" d="M 514.585938 171.269531 L 559.566406 171.269531 C 573.640625 171.269531 585.050781 182.679688 585.050781 196.753906 L 585.050781 242.910156 C 585.050781 256.984375 573.640625 268.394531 559.566406 268.394531 L 514.585938 268.394531 C 500.507812 268.394531 489.097656 256.984375 489.097656 242.910156 L 489.097656 196.753906 C 489.097656 182.679688 500.507812 171.269531 514.585938 171.269531 Z M 514.585938 171.269531"/></clipPath><clipPath id="ae055496a3"><path clip-rule="nonzero" d="M 273.992188 171.269531 L 355.277344 171.269531 L 355.277344 268.429688 L 273.992188 268.429688 Z M 273.992188 171.269531"/></clipPath><clipPath id="2cfc1fc340"><path clip-rule="nonzero" d="M 297.976562 171.269531 L 331.289062 171.269531 C 344.539062 171.269531 355.277344 182.007812 355.277344 195.253906 L 355.277344 244.410156 C 355.277344 257.65625 344.539062 268.394531 331.289062 268.394531 L 297.976562 268.394531 C 284.730469 268.394531 273.992188 257.65625 273.992188 244.410156 L 273.992188 195.253906 C 273.992188 182.007812 284.730469 171.269531 297.976562 171.269531 Z M 297.976562 171.269531"/></clipPath><mask id="c271274635"><g filter="url(#e89fe953b3)"><rect fill-opacity="0.51" height="548.099978" y="-45.674998" fill="#000000" width="1011.6" x="-84.3"/></g></mask><clipPath id="1aa305894c"><rect height="72" y="0" width="43" x="0"/></clipPath><clipPath id="0f0d92e69c"><path clip-rule="nonzero" d="M 338.824219 171.269531 L 398.988281 171.269531 L 398.988281 268.394531 L 338.824219 268.394531 Z M 338.824219 171.269531"/></clipPath><mask id="1d6399e07a"><g filter="url(#e89fe953b3)"><rect fill-opacity="0.51" height="548.099978" y="-45.674998" fill="#000000" width="1011.6" x="-84.3"/></g></mask><clipPath id="a3ad502a57"><rect height="72" y="0" width="41" x="0"/></clipPath><clipPath id="8b0f64df6e"><path clip-rule="nonzero" d="M 398.988281 171.269531 L 459.152344 171.269531 L 459.152344 268.394531 L 398.988281 268.394531 Z M 398.988281 171.269531"/></clipPath><mask id="c71a8aca7c"><g filter="url(#e89fe953b3)"><rect fill-opacity="0.51" height="548.099978" y="-45.674998" fill="#000000" width="1011.6" x="-84.3"/></g></mask><clipPath id="792d781ae0"><rect height="72" y="0" width="41" x="0"/></clipPath><clipPath id="f4cecf35bb"><path clip-rule="nonzero" d="M 449.921875 152.074219 L 528.273438 152.074219 L 528.273438 287.660156 L 449.921875 287.660156 Z M 449.921875 152.074219"/></clipPath><clipPath id="08ee062a71"><path clip-rule="nonzero" d="M 489.097656 152.074219 C 510.734375 152.074219 528.273438 169.613281 528.273438 191.25 L 528.273438 248.414062 C 528.273438 270.050781 510.734375 287.589844 489.097656 287.589844 C 467.460938 287.589844 449.921875 270.050781 449.921875 248.414062 L 449.921875 191.25 C 449.921875 169.613281 467.460938 152.074219 489.097656 152.074219 Z M 489.097656 152.074219"/></clipPath><clipPath id="7b002043f8"><path clip-rule="nonzero" d="M 449.921875 152.082031 L 528.628906 152.082031 L 528.628906 287.75 L 449.921875 287.75 Z M 449.921875 152.082031"/></clipPath><clipPath id="3c29045aad"><path clip-rule="nonzero" d="M 489.09375 152.082031 C 510.726562 152.082031 528.265625 169.621094 528.265625 191.253906 L 528.265625 248.410156 C 528.265625 270.042969 510.726562 287.582031 489.09375 287.582031 C 467.460938 287.582031 449.921875 270.042969 449.921875 248.410156 L 449.921875 191.253906 C 449.921875 169.621094 467.460938 152.082031 489.09375 152.082031 Z M 489.09375 152.082031"/></clipPath><mask id="9d04aea619"><g filter="url(#e89fe953b3)"><rect fill-opacity="0.51" height="548.099978" y="-45.674998" fill="#000000" width="1011.6" x="-84.3"/></g></mask><clipPath id="c582ac20dd"><rect height="72" y="0" width="36" x="0"/></clipPath></defs><g clip-path="url(#f5f601039b)"><g clip-path="url(#a777d628f2)"><path fill-rule="nonzero" fill-opacity="1" d="M 228.015625 106.46875 L 625.882812 106.46875 L 625.882812 298.648438 L 228.015625 298.648438 Z M 228.015625 106.46875" fill="#ffffff"/></g></g><g clip-path="url(#01d013c08b)"><g clip-path="url(#291252637a)"><path stroke-miterlimit="4" stroke-opacity="1" stroke-width="6" stroke="#000000" d="M 29.000636 -0.00185571 L 501.326766 -0.00185571 C 517.345947 -0.00185571 530.327008 12.984416 530.327008 28.998386 L 530.327008 227.372547 C 530.327008 243.391728 517.345947 256.372789 501.326766 256.372789 L 29.000636 256.372789 C 12.981454 256.372789 0.000393719 243.391728 0.000393719 227.372547 L 0.000393719 28.998386 C 0.000393719 12.984416 12.981454 -0.00185571 29.000636 -0.00185571 Z M 29.000636 -0.00185571" stroke-linejoin="miter" fill="none" transform="matrix(0.74959, 0, 0, 0.74959, 228.01533, 106.470141)" stroke-linecap="butt"/></g></g><g fill-opacity="1" fill="#545454"><g transform="translate(269.155622, 146.282371)"><g><path d="M 21.890625 -3.140625 C 20.960938 -2.035156 19.65625 -1.175781 17.96875 -0.5625 C 16.289062 0.0390625 14.425781 0.34375 12.375 0.34375 C 10.226562 0.34375 8.34375 -0.125 6.71875 -1.0625 C 5.09375 -2 3.835938 -3.363281 2.953125 -5.15625 C 2.078125 -6.945312 1.628906 -9.046875 1.609375 -11.453125 L 1.609375 -13.140625 C 1.609375 -15.628906 2.023438 -17.78125 2.859375 -19.59375 C 3.691406 -21.40625 4.894531 -22.789062 6.46875 -23.75 C 8.050781 -24.71875 9.898438 -25.203125 12.015625 -25.203125 C 14.960938 -25.203125 17.265625 -24.5 18.921875 -23.09375 C 20.585938 -21.6875 21.578125 -19.640625 21.890625 -16.953125 L 16.90625 -16.953125 C 16.675781 -18.378906 16.171875 -19.421875 15.390625 -20.078125 C 14.609375 -20.734375 13.535156 -21.0625 12.171875 -21.0625 C 10.429688 -21.0625 9.101562 -20.40625 8.1875 -19.09375 C 7.28125 -17.789062 6.820312 -15.847656 6.8125 -13.265625 L 6.8125 -11.671875 C 6.8125 -9.066406 7.304688 -7.097656 8.296875 -5.765625 C 9.285156 -4.441406 10.738281 -3.78125 12.65625 -3.78125 C 14.570312 -3.78125 15.941406 -4.1875 16.765625 -5 L 16.765625 -9.28125 L 12.109375 -9.28125 L 12.109375 -13.0625 L 21.890625 -13.0625 Z M 21.890625 -3.140625"/></g></g></g><g fill-opacity="1" fill="#545454"><g transform="translate(292.977591, 146.282371)"><g><path d="M 11.421875 -9.09375 L 7.34375 -9.09375 L 7.34375 0 L 2.21875 0 L 2.21875 -24.859375 L 11.453125 -24.859375 C 14.390625 -24.859375 16.65625 -24.203125 18.25 -22.890625 C 19.84375 -21.585938 20.640625 -19.738281 20.640625 -17.34375 C 20.640625 -15.644531 20.269531 -14.226562 19.53125 -13.09375 C 18.800781 -11.96875 17.691406 -11.066406 16.203125 -10.390625 L 21.578125 -0.234375 L 21.578125 0 L 16.078125 0 Z M 7.34375 -13.25 L 11.46875 -13.25 C 12.757812 -13.25 13.753906 -13.578125 14.453125 -14.234375 C 15.160156 -14.890625 15.515625 -15.789062 15.515625 -16.9375 C 15.515625 -18.113281 15.179688 -19.035156 14.515625 -19.703125 C 13.847656 -20.378906 12.828125 -20.71875 11.453125 -20.71875 L 7.34375 -20.71875 Z M 7.34375 -13.25"/></g></g></g><g fill-opacity="1" fill="#545454"><g transform="translate(315.296813, 146.282371)"><g><path d="M 17.171875 -10.78125 L 7.34375 -10.78125 L 7.34375 -4.109375 L 18.890625 -4.109375 L 18.890625 0 L 2.21875 0 L 2.21875 -24.859375 L 18.84375 -24.859375 L 18.84375 -20.71875 L 7.34375 -20.71875 L 7.34375 -14.78125 L 17.171875 -14.78125 Z M 17.171875 -10.78125"/></g></g></g><g fill-opacity="1" fill="#545454"><g transform="translate(334.96915, 146.282371)"><g><path d="M 17.171875 -10.78125 L 7.34375 -10.78125 L 7.34375 -4.109375 L 18.890625 -4.109375 L 18.890625 0 L 2.21875 0 L 2.21875 -24.859375 L 18.84375 -24.859375 L 18.84375 -20.71875 L 7.34375 -20.71875 L 7.34375 -14.78125 L 17.171875 -14.78125 Z M 17.171875 -10.78125"/></g></g></g><g fill-opacity="1" fill="#545454"><g transform="translate(354.641486, 146.282371)"><g><path d="M 22.4375 0 L 17.3125 0 L 7.34375 -16.359375 L 7.34375 0 L 2.21875 0 L 2.21875 -24.859375 L 7.34375 -24.859375 L 17.328125 -8.46875 L 17.328125 -24.859375 L 22.4375 -24.859375 Z M 22.4375 0"/></g></g></g><g fill-opacity="1" fill="#545454"><g transform="translate(379.334367, 146.282371)"><g><path d="M 11.484375 -8.65625 L 1.875 -8.65625 L 1.875 -12.640625 L 11.484375 -12.640625 Z M 11.484375 -8.65625"/></g></g></g><g fill-opacity="1" fill="#545454"><g transform="translate(392.893251, 146.282371)"><g><path d="M 15.109375 -6.515625 C 15.109375 -7.484375 14.765625 -8.226562 14.078125 -8.75 C 13.398438 -9.269531 12.171875 -9.816406 10.390625 -10.390625 C 8.617188 -10.960938 7.21875 -11.53125 6.1875 -12.09375 C 3.363281 -13.613281 1.953125 -15.664062 1.953125 -18.25 C 1.953125 -19.59375 2.328125 -20.789062 3.078125 -21.84375 C 3.835938 -22.894531 4.925781 -23.71875 6.34375 -24.3125 C 7.757812 -24.90625 9.347656 -25.203125 11.109375 -25.203125 C 12.890625 -25.203125 14.472656 -24.878906 15.859375 -24.234375 C 17.253906 -23.585938 18.332031 -22.675781 19.09375 -21.5 C 19.863281 -20.332031 20.25 -19.003906 20.25 -17.515625 L 15.125 -17.515625 C 15.125 -18.648438 14.765625 -19.535156 14.046875 -20.171875 C 13.335938 -20.804688 12.332031 -21.125 11.03125 -21.125 C 9.78125 -21.125 8.804688 -20.859375 8.109375 -20.328125 C 7.410156 -19.796875 7.0625 -19.097656 7.0625 -18.234375 C 7.0625 -17.421875 7.46875 -16.742188 8.28125 -16.203125 C 9.101562 -15.660156 10.304688 -15.148438 11.890625 -14.671875 C 14.796875 -13.796875 16.914062 -12.707031 18.25 -11.40625 C 19.582031 -10.101562 20.25 -8.488281 20.25 -6.5625 C 20.25 -4.40625 19.429688 -2.710938 17.796875 -1.484375 C 16.171875 -0.265625 13.984375 0.34375 11.234375 0.34375 C 9.316406 0.34375 7.570312 -0.00390625 6 -0.703125 C 4.4375 -1.410156 3.238281 -2.367188 2.40625 -3.578125 C 1.582031 -4.796875 1.171875 -6.207031 1.171875 -7.8125 L 6.3125 -7.8125 C 6.3125 -5.070312 7.953125 -3.703125 11.234375 -3.703125 C 12.453125 -3.703125 13.398438 -3.945312 14.078125 -4.4375 C 14.765625 -4.9375 15.109375 -5.628906 15.109375 -6.515625 Z M 15.109375 -6.515625"/></g></g></g><g fill-opacity="1" fill="#545454"><g transform="translate(414.392792, 146.282371)"><g><path d="M 21.734375 -8.28125 C 21.546875 -5.601562 20.554688 -3.492188 18.765625 -1.953125 C 16.984375 -0.421875 14.640625 0.34375 11.734375 0.34375 C 8.546875 0.34375 6.035156 -0.726562 4.203125 -2.875 C 2.378906 -5.019531 1.46875 -7.96875 1.46875 -11.71875 L 1.46875 -13.234375 C 1.46875 -15.617188 1.890625 -17.722656 2.734375 -19.546875 C 3.578125 -21.367188 4.78125 -22.765625 6.34375 -23.734375 C 7.90625 -24.710938 9.722656 -25.203125 11.796875 -25.203125 C 14.660156 -25.203125 16.96875 -24.429688 18.71875 -22.890625 C 20.476562 -21.359375 21.492188 -19.203125 21.765625 -16.421875 L 16.640625 -16.421875 C 16.515625 -18.023438 16.066406 -19.1875 15.296875 -19.90625 C 14.535156 -20.632812 13.367188 -21 11.796875 -21 C 10.085938 -21 8.804688 -20.382812 7.953125 -19.15625 C 7.109375 -17.9375 6.675781 -16.039062 6.65625 -13.46875 L 6.65625 -11.59375 C 6.65625 -8.90625 7.0625 -6.941406 7.875 -5.703125 C 8.6875 -4.460938 9.972656 -3.84375 11.734375 -3.84375 C 13.316406 -3.84375 14.492188 -4.203125 15.265625 -4.921875 C 16.046875 -5.648438 16.492188 -6.769531 16.609375 -8.28125 Z M 21.734375 -8.28125"/></g></g></g><g fill-opacity="1" fill="#545454"><g transform="translate(437.275544, 146.282371)"><g><path d="M 22.640625 -11.859375 C 22.640625 -9.421875 22.207031 -7.273438 21.34375 -5.421875 C 20.476562 -3.578125 19.238281 -2.15625 17.625 -1.15625 C 16.019531 -0.15625 14.175781 0.34375 12.09375 0.34375 C 10.03125 0.34375 8.191406 -0.148438 6.578125 -1.140625 C 4.960938 -2.128906 3.707031 -3.539062 2.8125 -5.375 C 1.925781 -7.21875 1.476562 -9.335938 1.46875 -11.734375 L 1.46875 -12.953125 C 1.46875 -15.398438 1.90625 -17.554688 2.78125 -19.421875 C 3.664062 -21.285156 4.914062 -22.710938 6.53125 -23.703125 C 8.144531 -24.703125 9.984375 -25.203125 12.046875 -25.203125 C 14.117188 -25.203125 15.960938 -24.703125 17.578125 -23.703125 C 19.191406 -22.710938 20.4375 -21.285156 21.3125 -19.421875 C 22.195312 -17.554688 22.640625 -15.410156 22.640625 -12.984375 Z M 17.453125 -13 C 17.453125 -15.601562 16.984375 -17.582031 16.046875 -18.9375 C 15.117188 -20.289062 13.785156 -20.96875 12.046875 -20.96875 C 10.328125 -20.96875 9 -20.296875 8.0625 -18.953125 C 7.132812 -17.617188 6.664062 -15.660156 6.65625 -13.078125 L 6.65625 -11.859375 C 6.65625 -9.328125 7.117188 -7.359375 8.046875 -5.953125 C 8.984375 -4.554688 10.332031 -3.859375 12.09375 -3.859375 C 13.8125 -3.859375 15.128906 -4.53125 16.046875 -5.875 C 16.972656 -7.226562 17.441406 -9.195312 17.453125 -11.78125 Z M 17.453125 -13"/></g></g></g><g fill-opacity="1" fill="#545454"><g transform="translate(461.421982, 146.282371)"><g><path d="M 11.421875 -9.09375 L 7.34375 -9.09375 L 7.34375 0 L 2.21875 0 L 2.21875 -24.859375 L 11.453125 -24.859375 C 14.390625 -24.859375 16.65625 -24.203125 18.25 -22.890625 C 19.84375 -21.585938 20.640625 -19.738281 20.640625 -17.34375 C 20.640625 -15.644531 20.269531 -14.226562 19.53125 -13.09375 C 18.800781 -11.96875 17.691406 -11.066406 16.203125 -10.390625 L 21.578125 -0.234375 L 21.578125 0 L 16.078125 0 Z M 7.34375 -13.25 L 11.46875 -13.25 C 12.757812 -13.25 13.753906 -13.578125 14.453125 -14.234375 C 15.160156 -14.890625 15.515625 -15.789062 15.515625 -16.9375 C 15.515625 -18.113281 15.179688 -19.035156 14.515625 -19.703125 C 13.847656 -20.378906 12.828125 -20.71875 11.453125 -20.71875 L 7.34375 -20.71875 Z M 7.34375 -13.25"/></g></g></g><g fill-opacity="1" fill="#545454"><g transform="translate(483.741216, 146.282371)"><g><path d="M 17.171875 -10.78125 L 7.34375 -10.78125 L 7.34375 -4.109375 L 18.890625 -4.109375 L 18.890625 0 L 2.21875 0 L 2.21875 -24.859375 L 18.84375 -24.859375 L 18.84375 -20.71875 L 7.34375 -20.71875 L 7.34375 -14.78125 L 17.171875 -14.78125 Z M 17.171875 -10.78125"/></g></g></g><g clip-path="url(#25279de70e)"><g clip-path="url(#d6881a4be6)"><path fill-rule="nonzero" fill-opacity="1" d="M 489.097656 171.269531 L 585.050781 171.269531 L 585.050781 268.347656 L 489.097656 268.347656 Z M 489.097656 171.269531" fill="#f4dd83"/></g></g><g clip-path="url(#ae055496a3)"><g clip-path="url(#2cfc1fc340)"><path fill-rule="nonzero" fill-opacity="1" d="M 273.992188 171.269531 L 355.277344 171.269531 L 355.277344 268.429688 L 273.992188 268.429688 Z M 273.992188 171.269531" fill="#03763f"/></g></g><g mask="url(#c271274635)"><g transform="matrix(1, 0, 0, 1, 293, 187)"><g clip-path="url(#1aa305894c)"><g fill-opacity="1" fill="#ffffff"><g transform="translate(1.215384, 56.759997)"><g><path d="M 28.203125 -8.890625 L 12.625 -8.890625 L 9.65625 0 L 0.203125 0 L 16.265625 -43.140625 L 24.5 -43.140625 L 40.640625 0 L 31.1875 0 Z M 15.015625 -16.09375 L 25.796875 -16.09375 L 20.375 -32.234375 Z M 15.015625 -16.09375"/></g></g></g></g></g></g><g clip-path="url(#0f0d92e69c)"><path fill-rule="nonzero" fill-opacity="1" d="M 338.824219 171.269531 L 398.988281 171.269531 L 398.988281 268.328125 L 338.824219 268.328125 Z M 338.824219 171.269531" fill="#00bf63"/></g><g mask="url(#1d6399e07a)"><g transform="matrix(1, 0, 0, 1, 349, 187)"><g clip-path="url(#a3ad502a57)"><g fill-opacity="1" fill="#ffffff"><g transform="translate(0.766741, 56.759997)"><g><path d="M 3.84375 0 L 3.84375 -43.140625 L 18.953125 -43.140625 C 24.191406 -43.140625 28.160156 -42.132812 30.859375 -40.125 C 33.566406 -38.125 34.921875 -35.1875 34.921875 -31.3125 C 34.921875 -29.195312 34.378906 -27.332031 33.296875 -25.71875 C 32.210938 -24.113281 30.703125 -22.9375 28.765625 -22.1875 C 30.972656 -21.632812 32.710938 -20.519531 33.984375 -18.84375 C 35.265625 -17.164062 35.90625 -15.109375 35.90625 -12.671875 C 35.90625 -8.523438 34.582031 -5.382812 31.9375 -3.25 C 29.289062 -1.125 25.519531 -0.0390625 20.625 0 Z M 12.734375 -18.78125 L 12.734375 -7.140625 L 20.359375 -7.140625 C 22.453125 -7.140625 24.082031 -7.632812 25.25 -8.625 C 26.425781 -9.625 27.015625 -11.003906 27.015625 -12.765625 C 27.015625 -16.710938 24.972656 -18.71875 20.890625 -18.78125 Z M 12.734375 -25.0625 L 19.3125 -25.0625 C 23.800781 -25.144531 26.046875 -26.929688 26.046875 -30.421875 C 26.046875 -32.378906 25.476562 -33.785156 24.34375 -34.640625 C 23.207031 -35.503906 21.410156 -35.9375 18.953125 -35.9375 L 12.734375 -35.9375 Z M 12.734375 -25.0625"/></g></g></g></g></g></g><g clip-path="url(#8b0f64df6e)"><path fill-rule="nonzero" fill-opacity="1" d="M 398.988281 171.269531 L 459.152344 171.269531 L 459.152344 268.328125 L 398.988281 268.328125 Z M 398.988281 171.269531" fill="#7ed957"/></g><g mask="url(#c71a8aca7c)"><g transform="matrix(1, 0, 0, 1, 409, 187)"><g clip-path="url(#792d781ae0)"><g fill-opacity="1" fill="#ffffff"><g transform="translate(0.351828, 56.759997)"><g><path d="M 37.71875 -14.375 C 37.375 -9.726562 35.65625 -6.070312 32.5625 -3.40625 C 29.476562 -0.738281 25.410156 0.59375 20.359375 0.59375 C 14.828125 0.59375 10.472656 -1.265625 7.296875 -4.984375 C 4.128906 -8.710938 2.546875 -13.828125 2.546875 -20.328125 L 2.546875 -22.953125 C 2.546875 -27.109375 3.273438 -30.765625 4.734375 -33.921875 C 6.203125 -37.078125 8.289062 -39.5 11 -41.1875 C 13.71875 -42.875 16.875 -43.71875 20.46875 -43.71875 C 25.445312 -43.71875 29.457031 -42.382812 32.5 -39.71875 C 35.539062 -37.0625 37.296875 -33.320312 37.765625 -28.5 L 28.890625 -28.5 C 28.671875 -31.28125 27.894531 -33.296875 26.5625 -34.546875 C 25.226562 -35.804688 23.195312 -36.4375 20.46875 -36.4375 C 17.507812 -36.4375 15.289062 -35.375 13.8125 -33.25 C 12.34375 -31.125 11.585938 -27.832031 11.546875 -23.375 L 11.546875 -20.109375 C 11.546875 -15.453125 12.253906 -12.046875 13.671875 -9.890625 C 15.085938 -7.742188 17.316406 -6.671875 20.359375 -6.671875 C 23.097656 -6.671875 25.144531 -7.296875 26.5 -8.546875 C 27.851562 -9.796875 28.628906 -11.738281 28.828125 -14.375 Z M 37.71875 -14.375"/></g></g></g></g></g></g><g clip-path="url(#f4cecf35bb)"><g clip-path="url(#08ee062a71)"><path fill-rule="nonzero" fill-opacity="1" d="M 449.921875 152.074219 L 528.273438 152.074219 L 528.273438 287.660156 L 449.921875 287.660156 Z M 449.921875 152.074219" fill="#c1ff72"/></g></g><g clip-path="url(#7b002043f8)"><g clip-path="url(#3c29045aad)"><path stroke-miterlimit="4" stroke-opacity="1" stroke-width="14" stroke="#ffffff" d="M 52.25724 0.000973044 C 81.11678 0.000973044 104.514999 23.399192 104.514999 52.258731 L 104.514999 128.508783 C 104.514999 157.368323 81.11678 180.766541 52.25724 180.766541 C 23.3977 180.766541 -0.000518067 157.368323 -0.000518067 128.508783 L -0.000518067 52.258731 C -0.000518067 23.399192 23.3977 0.000973044 52.25724 0.000973044 Z M 52.25724 0.000973044" stroke-linejoin="miter" fill="none" transform="matrix(0.74959, 0, 0, 0.74959, 449.922263, 152.081302)" stroke-linecap="butt"/></g></g><g fill-opacity="1" fill="#ffffff"><g transform="translate(464.355906, 246.44278)"><g><path d="M 48.921875 -26.09375 C 48.921875 -17.664062 46.519531 -11.207031 41.71875 -6.71875 C 36.925781 -2.238281 30 0 20.9375 0 L 6.4375 0 L 6.4375 -51.203125 L 22.515625 -51.203125 C 30.867188 -51.203125 37.359375 -48.992188 41.984375 -44.578125 C 46.609375 -40.160156 48.921875 -34 48.921875 -26.09375 Z M 37.640625 -25.8125 C 37.640625 -36.800781 32.785156 -42.296875 23.078125 -42.296875 L 17.296875 -42.296875 L 17.296875 -8.96875 L 21.953125 -8.96875 C 32.410156 -8.96875 37.640625 -14.582031 37.640625 -25.8125 Z M 37.640625 -25.8125"/></g></g></g><g mask="url(#9d04aea619)"><g transform="matrix(1, 0, 0, 1, 537, 187)"><g clip-path="url(#c582ac20dd)"><g fill-opacity="1" fill="#ffffff"><g transform="translate(0.678415, 56.759997)"><g><path d="M 29.796875 -18.6875 L 12.734375 -18.6875 L 12.734375 -7.140625 L 32.765625 -7.140625 L 32.765625 0 L 3.84375 0 L 3.84375 -43.140625 L 32.703125 -43.140625 L 32.703125 -35.9375 L 12.734375 -35.9375 L 12.734375 -25.65625 L 29.796875 -25.65625 Z M 29.796875 -18.6875"/></g></g></g></g></g></g></svg>